# xmcd
#
# Track frame offsets: 
#        150
#        25795
#        62323
#        82478
#        103300
#        151755
#        205253
#        227308
#
# Disc length: 3738 seconds
#
# Revision: 1
# Processed by: cddbd v1.5.2PL0 Copyright (c) Steve Scherf et al.
# Submitted via: ExactAudioCopy v0.99pb4
#
DISCID=5b0e9808
DTITLE=CollinsLS,BoultLPO1974 - Mozart Symphonies Nos. 40 and 41 "Jupite
DTITLE=r"ROY6448
DYEAR=1994
DGENRE=
TTITLE0=Symphony No.40 in G minor, K.550 - Allegro molto
TTITLE1=Symphony No.40 in G minor, K.550 - Andante
TTITLE2=Symphony No.40 in G minor, K.550 - Menuetto - Trio
TTITLE3=Symphony No.40 in G minor, K.550 - Finale (Allegro assai)
TTITLE4=Symphony No.41 in C major, K.551 "Jupiter" - Allegro vivace
TTITLE5=Symphony No.41 in C major, K.551 "Jupiter" - Andante cantabile
TTITLE6=Symphony No.41 in C major, K.551 "Jupiter" - Menuetto - Allegr
TTITLE6=etto
TTITLE7=Symphony No.41 in C major, K.551 "Jupiter" - Molto Allegro
EXTD=Sinfonia of London - Anthony Collins\nLondon Philharmonic Orchest
EXTD=ra - Sir Adrian Boult
EXTT0=
EXTT1=
EXTT2=
EXTT3=
EXTT4=
EXTT5=
EXTT6=
EXTT7=
PLAYORDER=
